<svg width="101" height="27" viewBox="0 0 101 27" fill="none" xmlns="http://www.w3.org/2000/svg">
<path d="M2.968 0.763999C3.304 0.763999 3.652 0.859999 4.012 1.052C4.396 1.22 4.684 1.448 4.876 1.736L13.624 15.2L11.824 15.128L20.788 1.736C21.244 1.088 21.832 0.763999 22.552 0.763999C23.128 0.763999 23.644 0.967999 24.1 1.376C24.556 1.784 24.784 2.312 24.784 2.96V23.804C24.784 24.428 24.58 24.956 24.172 25.388C23.764 25.796 23.224 26 22.552 26C21.88 26 21.328 25.796 20.896 25.388C20.488 24.956 20.284 24.428 20.284 23.804V6.848L21.688 7.172L14.344 18.368C14.128 18.632 13.852 18.86 13.516 19.052C13.204 19.244 12.88 19.328 12.544 19.304C12.232 19.328 11.908 19.244 11.572 19.052C11.26 18.86 10.996 18.632 10.78 18.368L3.904 7.496L4.84 5.588V23.804C4.84 24.428 4.648 24.956 4.264 25.388C3.88 25.796 3.376 26 2.752 26C2.152 26 1.66 25.796 1.276 25.388C0.892 24.956 0.7 24.428 0.7 23.804V2.96C0.7 2.36 0.916 1.844 1.348 1.412C1.804 0.979999 2.344 0.763999 2.968 0.763999ZM53.3801 13.4C53.3801 15.2 53.0801 16.88 52.4801 18.44C51.8801 20 51.0281 21.38 49.9241 22.58C48.8441 23.756 47.5481 24.68 46.0361 25.352C44.5481 26.024 42.9161 26.36 41.1401 26.36C39.3641 26.36 37.7321 26.024 36.2441 25.352C34.7561 24.68 33.4601 23.756 32.3561 22.58C31.2761 21.38 30.4361 20 29.8361 18.44C29.2361 16.88 28.9361 15.2 28.9361 13.4C28.9361 11.6 29.2361 9.92 29.8361 8.36C30.4361 6.8 31.2761 5.432 32.3561 4.256C33.4601 3.056 34.7561 2.12 36.2441 1.448C37.7321 0.775999 39.3641 0.439999 41.1401 0.439999C42.9161 0.439999 44.5481 0.775999 46.0361 1.448C47.5481 2.12 48.8441 3.056 49.9241 4.256C51.0281 5.432 51.8801 6.8 52.4801 8.36C53.0801 9.92 53.3801 11.6 53.3801 13.4ZM48.7001 13.4C48.7001 11.792 48.3761 10.34 47.7281 9.044C47.0801 7.724 46.1921 6.68 45.0641 5.912C43.9361 5.144 42.6281 4.76 41.1401 4.76C39.6521 4.76 38.3441 5.144 37.2161 5.912C36.0881 6.68 35.2001 7.712 34.5521 9.008C33.9281 10.304 33.6161 11.768 33.6161 13.4C33.6161 15.008 33.9281 16.472 34.5521 17.792C35.2001 19.088 36.0881 20.12 37.2161 20.888C38.3441 21.656 39.6521 22.04 41.1401 22.04C42.6281 22.04 43.9361 21.656 45.0641 20.888C46.1921 20.12 47.0801 19.088 47.7281 17.792C48.3761 16.472 48.7001 15.008 48.7001 13.4ZM74.0132 0.799998C74.5412 0.799998 75.0572 0.991999 75.5612 1.376C76.0892 1.76 76.3532 2.276 76.3532 2.924C76.3532 3.38 76.1852 3.836 75.8492 4.292L62.0612 22.004L61.6292 21.86H73.6532C74.2772 21.86 74.7932 22.052 75.2012 22.436C75.6332 22.796 75.8492 23.288 75.8492 23.912C75.8492 24.512 75.6332 25.016 75.2012 25.424C74.7932 25.808 74.2772 26 73.6532 26H57.8492C57.2252 26 56.6852 25.784 56.2292 25.352C55.7732 24.896 55.5452 24.404 55.5452 23.876C55.5452 23.42 55.7132 22.964 56.0492 22.508L69.8732 4.724L70.1972 4.94H59.2892C58.6652 4.94 58.1372 4.748 57.7052 4.364C57.2972 3.98 57.0932 3.476 57.0932 2.852C57.0932 2.228 57.2972 1.736 57.7052 1.376C58.1372 0.991999 58.6652 0.799998 59.2892 0.799998H74.0132ZM89.5809 6.452L81.8049 24.74C81.6369 25.196 81.3729 25.556 81.0129 25.82C80.6769 26.06 80.3049 26.18 79.8969 26.18C79.2489 26.18 78.7689 26 78.4569 25.64C78.1449 25.28 77.9889 24.836 77.9889 24.308C77.9889 24.092 78.0249 23.864 78.0969 23.624L87.0609 2.096C87.2529 1.616 87.5409 1.244 87.9249 0.979998C88.3329 0.715999 88.7649 0.607999 89.2209 0.655998C89.6529 0.655998 90.0489 0.787998 90.4089 1.052C90.7929 1.292 91.0689 1.64 91.2369 2.096L100.093 23.192C100.213 23.504 100.273 23.792 100.273 24.056C100.273 24.704 100.057 25.22 99.6249 25.604C99.2169 25.988 98.7609 26.18 98.2569 26.18C97.8249 26.18 97.4289 26.048 97.0689 25.784C96.7329 25.52 96.4689 25.16 96.2769 24.704L88.5369 6.668L89.5809 6.452ZM82.9209 20.348L84.9009 16.208H94.6209L95.3049 20.348H82.9209Z" fill="white"/>
</svg>
