<svg width="87" height="23" viewBox="0 0 87 23" fill="none" xmlns="http://www.w3.org/2000/svg">
<path d="M0.59082 22V0.540039H5.27832L11.7676 16.0381L18.3008 0.540039H22.9297V22H19.2676V11.3945L19.3848 5.31543L18.8428 6.92676L13.3496 20.5352H9.95117L4.5752 6.85352L4.0332 5.24219L4.16504 11.4531V22H0.59082ZM32.4658 17.0342C33.5303 18.3916 35.1025 19.0703 37.1826 19.0703C39.2627 19.0703 40.8301 18.3965 41.8848 17.0488C42.9492 15.6914 43.4814 13.7773 43.4814 11.3066C43.4814 8.80664 42.9492 6.86816 41.8848 5.49121C40.8301 4.11426 39.2676 3.42578 37.1973 3.42578C35.1172 3.42578 33.54 4.11914 32.4658 5.50586C31.4014 6.88281 30.8691 8.81641 30.8691 11.3066C30.8691 13.7676 31.4014 15.6768 32.4658 17.0342ZM37.168 22.3076C33.9355 22.3076 31.3818 21.3311 29.5068 19.3779C27.6416 17.415 26.709 14.71 26.709 11.2627C26.709 7.7959 27.6465 5.09082 29.5215 3.14746C31.3965 1.2041 33.9502 0.232422 37.1826 0.232422C40.415 0.232422 42.9639 1.20898 44.8291 3.16211C46.6943 5.10547 47.627 7.81055 47.627 11.2773C47.627 14.7051 46.6895 17.4004 44.8145 19.3633C42.9395 21.3262 40.3906 22.3076 37.168 22.3076ZM49.9854 22V19.4512L61.3086 3.7041H50.3809V0.540039H65.9961V3.42578L54.8779 18.8359H66.0693L66.0547 22H49.9854ZM66.7578 22L74.6533 0.525391H78.9746L86.7529 22H82.6807L80.5566 15.9355H73.042L70.9033 22H66.7578ZM74.0381 12.9766H79.5459C77.7881 7.3418 76.8848 4.43164 76.8359 4.24609L74.0381 12.9766Z" fill="#37AAFD"/>
</svg>
